<?xml version="1.0" encoding="UTF-8" standalone="no"?>
<svg
   width="320pt"
   height="400pt"
   version="1.1"
   viewBox="0 0 320 400"
   id="svg167"
   sodipodi:docname="touch-screen.svg"
   inkscape:version="1.2.1 (9c6d41e410, 2022-07-14)"
   xmlns:inkscape="http://www.inkscape.org/namespaces/inkscape"
   xmlns:sodipodi="http://sodipodi.sourceforge.net/DTD/sodipodi-0.dtd"
   xmlns="http://www.w3.org/2000/svg"
   xmlns:svg="http://www.w3.org/2000/svg"><sodipodi:namedview
   id="namedview169"
   pagecolor="#ffffff"
   bordercolor="#000000"
   borderopacity="0.25"
   inkscape:showpageshadow="2"
   inkscape:pageopacity="0.0"
   inkscape:pagecheckerboard="0"
   inkscape:deskcolor="#d1d1d1"
   inkscape:document-units="pt"
   showgrid="false"
   inkscape:zoom="1.5075"
   inkscape:cx="218.90547"
   inkscape:cy="157.54561"
   inkscape:window-width="1920"
   inkscape:window-height="991"
   inkscape:window-x="-9"
   inkscape:window-y="-9"
   inkscape:window-maximized="1"
   inkscape:current-layer="g165" />
 HEAD
     inkscape:zoom=&quot;1.218244&quot;
     inkscape:cx=&quot;339.01256&quot;
     inkscape:cy=&quot;145.70152&quot;
=======
     inkscape:zoom=&quot;0.86142857&quot;
     inkscape:cx=&quot;132.33831&quot;
     inkscape:cy=&quot;259.45274&quot;
&gt;&gt;&gt;&gt;&gt;&gt;&gt; 4b840891c4e0095f9dd24b2ad9f8f2f41613a94f
     inkscape:window-width=&quot;1920&quot;
     inkscape:window-height=&quot;991&quot;
     inkscape:window-x=&quot;-9&quot;
     inkscape:window-y=&quot;-9&quot;
     inkscape:window-maximized=&quot;1&quot;
     inkscape:current-layer=&quot;g165&quot; /&gt;
  <defs
   id="defs65">
  <symbol
     id="u"
     overflow="visible">
    <path
       d="m 18.766,-1.125 c -0.96875,0.5 -1.9805,0.875 -3.0312,1.125 -1.043,0.25781 -2.1367,0.39062 -3.2812,0.39062 -3.3984,0 -6.0898,-0.94531 -8.0781,-2.8438 -1.9922,-1.9062 -2.9844,-4.4844 -2.9844,-7.7344 0,-3.2578 0.99219,-5.8359 2.9844,-7.7344 1.9883,-1.9062 4.6797,-2.8594 8.0781,-2.8594 1.1445,0 2.2383,0.13281 3.2812,0.39062 1.0508,0.25 2.0625,0.625 3.0312,1.125 v 4.2188 c -0.98047,-0.65625 -1.9453,-1.1406 -2.8906,-1.4531 -0.94922,-0.3125 -1.9492,-0.46875 -3,-0.46875 -1.875,0 -3.3516,0.60547 -4.4219,1.8125 -1.0742,1.1992 -1.6094,2.8555 -1.6094,4.9688 0,2.1055 0.53516,3.7617 1.6094,4.9688 1.0703,1.1992 2.5469,1.7969 4.4219,1.7969 1.0508,0 2.0508,-0.14844 3,-0.45312 0.94531,-0.3125 1.9102,-0.80078 2.8906,-1.4688 z"
       id="path2" />
  </symbol>
  <symbol
     id="b"
     overflow="visible">
    <path
       d="m 13.734,-11.141 c -0.4375,-0.19531 -0.87109,-0.34375 -1.2969,-0.4375 -0.41797,-0.10156 -0.83984,-0.15625 -1.2656,-0.15625 -1.2617,0 -2.2305,0.40625 -2.9062,1.2188 -0.67969,0.80469 -1.0156,1.9531 -1.0156,3.4531 v 7.0625 H 2.3591 v -15.312 h 4.8906 v 2.5156 c 0.625,-1 1.3438,-1.7266 2.1562,-2.1875 0.82031,-0.46875 1.8008,-0.70312 2.9375,-0.70312 0.16406,0 0.34375,0.01172 0.53125,0.03125 0.19531,0.01172 0.47656,0.03906 0.84375,0.07813 z"
       id="path5" />
  </symbol>
  <symbol
     id="d"
     overflow="visible">
    <path
       d="m 17.641,-7.7031 v 1.4062 H 6.188 c 0.125,1.1484 0.53906,2.0078 1.25,2.5781 0.70703,0.57422 1.7031,0.85938 2.9844,0.85938 1.0312,0 2.082,-0.14844 3.1562,-0.45312 1.082,-0.3125 2.1914,-0.77344 3.3281,-1.3906 v 3.7656 c -1.1562,0.4375 -2.3125,0.76562 -3.4688,0.98438 -1.1562,0.22656 -2.3125,0.34375 -3.4688,0.34375 -2.7734,0 -4.9297,-0.70312 -6.4688,-2.1094 -1.5312,-1.4062 -2.2969,-3.3789 -2.2969,-5.9219 0,-2.5 0.75391,-4.4609 2.2656,-5.8906 1.5078,-1.4375 3.582,-2.1562 6.2188,-2.1562 2.4062,0 4.332,0.73047 5.7812,2.1875 1.4453,1.4492 2.1719,3.3828 2.1719,5.7969 z m -5.0312,-1.625 c 0,-0.92578 -0.27344,-1.6719 -0.8125,-2.2344 -0.54297,-0.57031 -1.25,-0.85938 -2.125,-0.85938 -0.94922,0 -1.7188,0.26562 -2.3125,0.79688 -0.5937,0.53126 -0.96484,1.2969 -1.1094,2.2969 z"
       id="path8" />
  </symbol>
  <symbol
     id="a"
     overflow="visible">
    <path
       d="m 9.2188,-6.8906 c -1.0234,0 -1.793,0.17188 -2.3125,0.51562 -0.51172,0.34375 -0.76562,0.85547 -0.76562,1.5312 0,0.625 0.20703,1.1172 0.625,1.4688 0.41406,0.34375 0.98828,0.51562 1.7188,0.51562 0.92578,0 1.7031,-0.32812 2.3281,-0.98438 0.63281,-0.66406 0.95312,-1.4922 0.95312,-2.4844 v -0.5625 z m 7.4688,-1.8438 V 0 h -4.9219 v -2.2656 c -0.65625,0.92969 -1.3984,1.6055 -2.2188,2.0312 -0.82422,0.41406 -1.8242,0.625 -3,0.625 -1.5859,0 -2.8711,-0.45703 -3.8594,-1.375 -0.99219,-0.92578 -1.4844,-2.1289 -1.4844,-3.6094 0,-1.7891 0.61328,-3.1016 1.8438,-3.9375 1.2383,-0.84375 3.1797,-1.2656 5.8281,-1.2656 h 2.8906 v -0.39062 c 0,-0.76953 -0.30859,-1.332 -0.92188,-1.6875 -0.61719,-0.36328 -1.5703,-0.54688 -2.8594,-0.54688 -1.0547,0 -2.0312,0.10547 -2.9375,0.3125 -0.89844,0.21094 -1.7305,0.52344 -2.5,0.9375 v -3.7344 c 1.0391,-0.25 2.0859,-0.44141 3.1406,-0.57812 1.0625,-0.13281 2.125,-0.20312 3.1875,-0.20312 2.7578,0 4.75,0.54688 5.9688,1.6406 1.2266,1.0859 1.8438,2.8555 1.8438,5.3125 z"
       id="path11" />
  </symbol>
  <symbol
     id="e"
     overflow="visible">
    <path
       d="m 7.7031,-19.656 v 4.3438 H 12.75 v 3.5 H 7.7031 v 6.5 c 0,0.71094 0.14062,1.1875 0.42188,1.4375 0.28126,0.25 0.83594,0.375 1.6719,0.375 h 2.5156 v 3.5 h -4.1875 c -1.9375,0 -3.3125,-0.39844 -4.125,-1.2031 -0.80469,-0.8125 -1.2031,-2.1797 -1.2031,-4.1094 v -6.5 h -2.4219 v -3.5 h 2.4219 v -4.3438 z"
       id="path14" />
  </symbol>
  <symbol
     id="m"
     overflow="visible">
    <path
       d="m 12.766,-13.078 v -8.2031 h 4.9219 V -1e-4 H 12.766 v -2.2188 c -0.66797,0.90625 -1.4062,1.5703 -2.2188,1.9844 -0.8126,0.4141 -1.7578,0.625 -2.8281,0.625 -1.8867,0 -3.4336,-0.75 -4.6406,-2.25 -1.2109,-1.5 -1.8125,-3.4258 -1.8125,-5.7812 0,-2.3633 0.60156,-4.2969 1.8125,-5.7969 1.207,-1.5 2.7539,-2.25 4.6406,-2.25 1.0625,0 2,0.21484 2.8125,0.64062 0.82031,0.42969 1.5664,1.0859 2.2344,1.9688 z m -3.2188,9.9219 c 1.0391,0 1.8359,-0.37891 2.3906,-1.1406 0.55078,-0.76953 0.82812,-1.8828 0.82812,-3.3438 0,-1.457 -0.27734,-2.5664 -0.82812,-3.3281 -0.55469,-0.76953 -1.3516,-1.1562 -2.3906,-1.1562 -1.043,0 -1.8398,0.38672 -2.3906,1.1562 -0.55469,0.76172 -0.82812,1.8711 -0.82812,3.3281 0,1.4609 0.27344,2.5742 0.82812,3.3438 0.55078,0.76172 1.3477,1.1406 2.3906,1.1406 z"
       id="path17" />
  </symbol>
  <symbol
     id="l"
     overflow="visible">
    <path
       d="m 10.5,-3.1562 c 1.0508,0 1.8516,-0.37891 2.4062,-1.1406 0.55078,-0.76953 0.82812,-1.8828 0.82812,-3.3438 0,-1.457 -0.27734,-2.5664 -0.82812,-3.3281 -0.55469,-0.76953 -1.3555,-1.1562 -2.4062,-1.1562 -1.0547,0 -1.8594,0.38672 -2.4219,1.1562 -0.55469,0.77344 -0.82812,1.8828 -0.82812,3.3281 0,1.4492 0.27344,2.5586 0.82812,3.3281 0.5625,0.77344 1.3672,1.1562 2.4219,1.1562 z m -3.25,-9.9219 c 0.67578,-0.88281 1.4219,-1.5391 2.2344,-1.9688 0.82031,-0.42578 1.7656,-0.64062 2.8281,-0.64062 1.8945,0 3.4453,0.75 4.6562,2.25 1.207,1.5 1.8125,3.4336 1.8125,5.7969 0,2.3555 -0.60547,4.2812 -1.8125,5.7812 -1.2109,1.5 -2.7617,2.25 -4.6562,2.25 -1.0625,0 -2.0078,-0.21094 -2.8281,-0.625 C 8.6719,-0.6602 7.9258,-1.32032 7.25,-2.21882 V -2e-5 H 2.3594 v -21.281 H 7.25 Z"
       id="path20" />
  </symbol>
  <symbol
     id="g"
     overflow="visible">
    <path
       d="m 0.34375,-15.312 h 4.8906 l 4.125,10.391 3.5,-10.391 h 4.8906 l -6.4375,16.766 c -0.64844,1.6953 -1.4023,2.8828 -2.2656,3.5625 -0.86719,0.6875 -2,1.0312 -3.4062,1.0312 H 2.79685 V 2.8289 h 1.5312 c 0.83203,0 1.4375,-0.13672 1.8125,-0.40625 C 6.52336,2.16093 6.82024,1.69218 7.03117,1.01645 L 7.17179,0.59457 Z"
       id="path23" />
  </symbol>
  <symbol
     id="k"
     overflow="visible">
    <path
       d="m 0.82812,-20.406 h 5.0469 l 3.5312,14.828 3.5,-14.828 h 5.0781 l 3.5,14.828 3.5156,-14.828 h 5.0156 L 25.20302,0 h -6.0781 L 15.42182,-15.516 11.76562,0 h -6.0781 z"
       id="path26" />
  </symbol>
  <symbol
     id="c"
     overflow="visible">
    <path
       d="m 9.6406,-12.188 c -1.0859,0 -1.9141,0.39062 -2.4844,1.1719 -0.57422,0.78125 -0.85938,1.9062 -0.85938,3.375 0,1.4688 0.28516,2.5938 0.85938,3.375 0.57031,0.77344 1.3984,1.1562 2.4844,1.1562 1.0625,0 1.875,-0.38281 2.4375,-1.1562 0.57031,-0.78125 0.85938,-1.9062 0.85938,-3.375 0,-1.4688 -0.28906,-2.5938 -0.85938,-3.375 -0.5625,-0.78125 -1.375,-1.1719 -2.4375,-1.1719 z m 0,-3.5 c 2.6328,0 4.6914,0.71484 6.1719,2.1406 1.4766,1.418 2.2188,3.3867 2.2188,5.9062 0,2.5117 -0.74219,4.4805 -2.2188,5.9062 C 14.332,-0.317 12.2734,0.39 9.6406,0.39 6.9922,0.39 4.9258,-0.31703 3.4375,-1.735 1.9453,-3.1608 1.2031,-5.1295 1.2031,-7.6412 c 0,-2.5195 0.74219,-4.4883 2.2344,-5.9062 1.4883,-1.4258 3.5547,-2.1406 6.2031,-2.1406 z"
       id="path29" />
  </symbol>
  <symbol
     id="j"
     overflow="visible">
    <path
       d="M 2.3594,-21.281 H 7.25 v 11.594 l 5.625,-5.625 h 5.6875 L 11.0937,-8.2808 19.1562,4e-4 H 13.2187 L 7.2499,-6.3902 V 4e-4 H 2.3593 Z"
       id="path32" />
  </symbol>
  <symbol
     id="i"
     overflow="visible">
    <path
       d="m 16.547,-12.766 c 0.61328,-0.94531 1.3477,-1.6719 2.2031,-2.1719 0.85156,-0.5 1.7891,-0.75 2.8125,-0.75 1.7578,0 3.0977,0.54688 4.0156,1.6406 0.92578,1.0859 1.3906,2.6562 1.3906,4.7188 V -4e-4 h -4.9219 v -7.9844 -0.35938 c 0.0078,-0.13281 0.01563,-0.32031 0.01563,-0.5625 0,-1.082 -0.16406,-1.8633 -0.48438,-2.3438 -0.3125,-0.48828 -0.82422,-0.73438 -1.5312,-0.73438 -0.92969,0 -1.6484,0.38672 -2.1562,1.1562 -0.51172,0.76172 -0.77344,1.8672 -0.78125,3.3125 v 7.5156 h -4.9219 v -7.9844 c 0,-1.6953 -0.14844,-2.7852 -0.4375,-3.2656 -0.29297,-0.48828 -0.8125,-0.73438 -1.5625,-0.73438 -0.9375,0 -1.6641,0.38672 -2.1719,1.1562 -0.51172,0.76172 -0.76562,1.8594 -0.76562,3.2969 v 7.5312 h -4.9219 v -15.312 h 4.9219 v 2.2344 c 0.60156,-0.86328 1.2891,-1.5156 2.0625,-1.9531 0.78125,-0.4375 1.6406,-0.65625 2.5781,-0.65625 1.0625,0 2,0.25781 2.8125,0.76562 0.8125,0.51172 1.4258,1.2305 1.8438,2.1562 z"
       id="path35" />
  </symbol>
  <symbol
     id="f"
     overflow="visible">
    <path
       d="M 17.75,-9.3281 V 0 h -4.9219 v -7.1406 c 0,-1.3203 -0.03125,-2.2344 -0.09375,-2.7344 -0.0625,-0.5 -0.16797,-0.86719 -0.3125,-1.1094 -0.1875,-0.3125 -0.44922,-0.55469 -0.78125,-0.73438 -0.32422,-0.17578 -0.69531,-0.26562 -1.1094,-0.26562 -1.0234,0 -1.8242,0.39844 -2.4062,1.1875 -0.58594,0.78125 -0.875,1.8711 -0.875,3.2656 V -1e-4 H 2.3594 v -15.312 H 7.25 v 2.2344 c 0.73828,-0.88281 1.5195,-1.5391 2.3438,-1.9688 0.83203,-0.42578 1.75,-0.64062 2.75,-0.64062 1.7695,0 3.1133,0.54688 4.0312,1.6406 0.91406,1.0859 1.375,2.6562 1.375,4.7188 z"
       id="path38" />
  </symbol>
  <symbol
     id="t"
     overflow="visible">
    <path
       d="m 16.781,-19.766 v 4.3125 c -1.125,-0.5 -2.2266,-0.875 -3.2969,-1.125 -1.0625,-0.25781 -2.0703,-0.39062 -3.0156,-0.39062 -1.25,0 -2.1797,0.17969 -2.7812,0.53125 -0.60547,0.34375 -0.90625,0.88281 -0.90625,1.6094 0,0.54297 0.20312,0.96875 0.60938,1.2812 0.40625,0.30469 1.1406,0.5625 2.2031,0.78125 l 2.25,0.45312 c 2.2695,0.44922 3.8789,1.1406 4.8281,2.0781 0.95703,0.92969 1.4375,2.2461 1.4375,3.9531 0,2.25 -0.66797,3.9297 -2,5.0312 -1.3359,1.0938 -3.3711,1.6406 -6.1094,1.6406 -1.3047,0 -2.6055,-0.125 -3.9062,-0.375 -1.3047,-0.23828 -2.6055,-0.59766 -3.9062,-1.0781 v -4.4531 c 1.3008,0.69922 2.5625,1.2266 3.7812,1.5781 1.2188,0.34375 2.3906,0.51562 3.5156,0.51562 1.1562,0 2.0352,-0.1875 2.6406,-0.5625 0.61328,-0.38281 0.92188,-0.9375 0.92188,-1.6562 0,-0.63281 -0.21094,-1.125 -0.625,-1.4688 -0.41797,-0.34375 -1.2461,-0.65625 -2.4844,-0.9375 l -2.0312,-0.4375 c -2.043,-0.4375 -3.5391,-1.1328 -4.4844,-2.0938 -0.9375,-0.95703 -1.4062,-2.25 -1.4062,-3.875 0,-2.0312 0.65625,-3.5938 1.9688,-4.6875 1.31255,-1.0937 3.1953,-1.6406 5.6562,-1.6406 1.125,0 2.2734,0.08594 3.4531,0.25 1.1875,0.16797 2.4141,0.42188 3.6875,0.76562 z"
       id="path41" />
  </symbol>
  <symbol
     id="h"
     overflow="visible">
    <path
       d="M 2.3594,-15.312 H 7.25 v 15.031 c 0,2.0508 -0.49609,3.6172 -1.4844,4.7031 -0.98047,1.082 -2.4062,1.625 -4.2812,1.625 H -0.9375 V 2.8283 h 0.85938 c 0.92578,0 1.5625,-0.21094 1.9062,-0.625 0.35156,-0.41797 0.53125,-1.2461 0.53125,-2.4844 z m 0,-5.9688 H 7.25 v 4 H 2.3594 Z"
       id="path44" />
  </symbol>
  <symbol
     id="s"
     overflow="visible">
    <path
       d="m 12.422,-21.281 v 3.2188 H 9.7189 c -0.6875,0 -1.1719,0.125 -1.4531,0.375 -0.27344,0.25 -0.40625,0.6875 -0.40625,1.3125 v 1.0625 h 4.1875 v 3.5 H 7.85955 V -2e-4 h -4.8906 v -11.812 h -2.4375 v -3.5 h 2.4375 v -1.0625 c 0,-1.6641 0.46094,-2.8984 1.3906,-3.7031 0.92578,-0.80078 2.3672,-1.2031 4.3281,-1.2031 z"
       id="path47" />
  </symbol>
  <symbol
     id="r"
     overflow="visible">
    <path
       d="M 17.75,-9.3281 V 0 h -4.9219 v -7.1094 c 0,-1.3438 -0.03125,-2.2656 -0.09375,-2.7656 -0.0625,-0.5 -0.16797,-0.86719 -0.3125,-1.1094 -0.1875,-0.3125 -0.44922,-0.55469 -0.78125,-0.73438 -0.32422,-0.17578 -0.69531,-0.26562 -1.1094,-0.26562 -1.0234,0 -1.8242,0.39844 -2.4062,1.1875 -0.58594,0.78125 -0.875,1.8711 -0.875,3.2656 V -1e-4 H 2.3594 v -21.281 H 7.25 v 8.2031 c 0.73828,-0.88281 1.5195,-1.5391 2.3438,-1.9688 0.83203,-0.42578 1.75,-0.64062 2.75,-0.64062 1.7695,0 3.1133,0.54688 4.0312,1.6406 0.91406,1.0859 1.375,2.6562 1.375,4.7188 z"
       id="path50" />
  </symbol>
  <symbol
     id="q"
     overflow="visible">
    <path
       d="m 2.5781,-20.406 h 5.875 l 7.4219,14 v -14 h 4.9844 V 0 h -5.875 L 7.5625,-14 V 0 H 2.5781 Z"
       id="path53" />
  </symbol>
  <symbol
     id="p"
     overflow="visible">
    <path
       d="m 2.1875,-5.9688 v -9.3438 h 4.9219 v 1.5312 c 0,0.83594 -0.00781,1.875 -0.015625,3.125 -0.011719,1.25 -0.015625,2.0859 -0.015625,2.5 0,1.2422 0.03125,2.1328 0.09375,2.6719 0.070313,0.54297 0.17969,0.93359 0.32812,1.1719 0.20703,0.32422 0.47266,0.57422 0.79688,0.75 0.32031,0.16797 0.69141,0.25 1.1094,0.25 1.0195,0 1.8203,-0.39062 2.4062,-1.1719 0.58203,-0.78125 0.875,-1.8672 0.875,-3.2656 v -7.5625 h 4.8906 V -6e-4 H 12.6875 V -2.2194 C 11.94531,-1.32096 11.1641,-0.6608 10.3437,-0.235 9.51948,0.17906 8.6093,0.39 7.6093,0.39 5.8476,0.39 4.5038,-0.14906 3.5781,-1.235 2.64841,-2.317 2.1875,-3.8952 2.1875,-5.9694 Z"
       id="path56" />
  </symbol>
  <symbol
     id="o"
     overflow="visible">
    <path
       d="m 2.5781,-20.406 h 8.7344 c 2.5938,0 4.582,0.57812 5.9688,1.7344 1.3945,1.1484 2.0938,2.7891 2.0938,4.9219 0,2.1367 -0.69922,3.7812 -2.0938,4.9375 -1.3867,1.1562 -3.375,1.7344 -5.9688,1.7344 H 7.8281 V 3e-4 h -5.25 z m 5.25,3.8125 v 5.7031 H 10.75 c 1.0195,0 1.8047,-0.25 2.3594,-0.75 0.5625,-0.5 0.84375,-1.2031 0.84375,-2.1094 0,-0.91406 -0.28125,-1.6172 -0.84375,-2.1094 -0.55469,-0.48828 -1.3398,-0.73438 -2.3594,-0.73438 z"
       id="path59" />
  </symbol>
  <symbol
     id="n"
     overflow="visible">
    <path
       d="m 14.719,-14.828 v 3.9844 c -0.65625,-0.45703 -1.3242,-0.79688 -2,-1.0156 -0.66797,-0.21875 -1.3594,-0.32812 -2.0781,-0.32812 -1.3672,0 -2.4336,0.40234 -3.2031,1.2031 -0.76172,0.79297 -1.1406,1.9062 -1.1406,3.3438 0,1.4297 0.37891,2.543 1.1406,3.3438 0.76953,0.79297 1.8359,1.1875 3.2031,1.1875 0.75781,0 1.4844,-0.10938 2.1719,-0.32812 0.6875,-0.22656 1.3203,-0.56641 1.9062,-1.0156 v 4 c -0.76172,0.28125 -1.5391,0.48828 -2.3281,0.625 -0.78125,0.14453 -1.5742,0.21875 -2.375,0.21875 -2.7617,0 -4.9219,-0.70703 -6.4844,-2.125 -1.5547,-1.4141 -2.3281,-3.3828 -2.3281,-5.9062 0,-2.5312 0.77344,-4.5039 2.3281,-5.9219 1.5625,-1.4141 3.7227,-2.125 6.4844,-2.125 0.80078,0 1.5938,0.07422 2.375,0.21875 0.78125,0.13672 1.5547,0.35156 2.3281,0.64062 z"
       id="path62" />
  </symbol>
</defs>
<g
   id="g165"><path
   id="path46" />
 HEAD
       d=&quot;m 189.85025,279.70707 c -20.37694,-0.0872 -34.45342,-12.08866 -33.74739,-27.105 v -0.89453 c -3.49088,-1.8945 -6.16918,-5.2656 -7.44199,-9.3711 -1.27639,-4.1055 -1.04275,-8.6094 0.64167,-12.523 -2.80034,-1.4141 -5.17875,-3.7031 -6.84572,-6.5938 -1.66697,-2.8906 -2.55276,-6.2617 -2.55276,-9.7031 0,-2.3672 0.42544,-4.707 1.25191,-6.8867 h -27.29894 v 51.855 c 0,3.0938 -2.23888,5.6016 -5.00092,5.6016 -2.75846,0 -4.99742,-2.5078 -4.99742,-5.6016 v -51.855 h -5.000905 c -5.47515,-0.34375 -10.40964,-3.8164 -13.06382,-9.1953 -2.65393,-5.375 -2.65393,-11.906 0,-17.281 2.65392,-5.3789 7.58849,-8.8516 13.06382,-9.1953 h 5.000905 v -48.16 c 0,-3.0938 2.23887,-5.6016 4.99742,-5.6016 2.76204,0 5.00092,2.5078 5.00092,5.6016 v 48.16 h 91.99045 c 0.21621,0.0274 0.43591,0.0274 0.65213,0 -4.15342,-3.2383 -8.72187,-5.7461 -13.5486,-7.4492 -11.04796,-4.6484 -28.69791,-16.801 -24.39746,-34.441 l 0.34874,-0.95312 v 0.004 c 1.95988,-4.0898 5.34265,-7.0898 9.34992,-8.2891 5.78207,-1.3047 11.78003,0.3125 16.3974,4.4258 5.60415,4.2695 11.71039,7.6445 18.14811,10.023 3.35136,0.78516 24.99741,6.2148 34.99548,16.801 7.8082,8.0625 14.54581,17.344 19.99971,27.551 0.92767,-1.25 2.29467,-1.9844 3.7489,-2.0156 h 29.39874 -0.004 c 2.76204,0 5.00092,2.5078 5.00092,5.6016 0,3.0898 -2.23888,5.5977 -5.00092,5.5977 h -24.49833 l 0.004,73.25 h 24.49836 -0.004 c 2.76204,0 5.00092,2.5039 5.00092,5.5977 0,3.0938 -2.23888,5.6016 -5.00092,5.6016 h -29.7469 c -1.99829,-0.0352 -3.7873,-1.3984 -4.54757,-3.4727 -8.9937,7.2305 -19.72831,11.25 -30.7968,11.535 h -21.59687 v -11.199 h 21.59687 c 11.39346,-0.5625 22.25661,-5.5742 30.69592,-14.168 v -52.922 c -5.25892,-16.453 -14.02979,-31.215 -25.54467,-43.008 v -0.28125 c -6.65038,-7.4492 -23.99662,-12.77 -29.99868,-14.223 -0.13247,0.0273 -0.26852,0.0273 -0.40105,0 -7.4769,-2.7227 -14.58062,-6.6055 -21.09869,-11.535 -2.30164,-2.1445 -5.2624,-3.1914 -8.24762,-2.9102 -1.21364,0.42969 -2.26682,1.293 -2.99917,2.4609 -2.14817,11.648 18.29811,20.551 18.49719,20.609 18.39898,7.5586 21.89684,14.559 21.29689,19.266 -0.0628,2.2539 -0.92766,4.3906 -2.3993,5.9336 -2.68873,2.4062 -6.05758,3.6602 -9.4999,3.5273 H 99.058945 c -3.19789,0.32422 -5.64603,3.3242 -5.64603,6.918 0,3.5938 2.44814,6.5938 5.64603,6.9141 h 77.091985 c 2.75846,0 4.99742,2.5078 4.99742,5.6016 0,3.0938 -2.23887,5.6016 -4.99742,5.6016 h -20.34878 c -3.3967,0 -6.1482,3.082 -6.1482,6.8867 0,3.8047 2.7515,6.8867 6.1482,6.8867 h 20.34878 c 2.75846,0 4.99742,2.5078 4.99742,5.6016 0,3.0938 -2.23887,5.6016 -4.99742,5.6016 h -13.60038 c -2.75846,0 -4.99742,2.5039 -4.99742,5.5977 0,3.0938 2.23888,5.6016 4.99742,5.6016 h 19.99971 c 2.75846,0 4.99744,2.5078 4.99744,5.5977 0,3.0938 -2.23888,5.6016 -4.99744,5.6016 h -16.54739 c 1.60073,12.266 18.69896,15.176 28.99699,15.793 h -0.004 c 2.60508,0.23438 5.18657,3.25503 4.59977,5.5977 -0.85412,3.40986 -6.23021,4.04464 -9.74538,4.0296 z&quot;
       id=&quot;path69&quot;
       style=&quot;fill:#782144;stroke-width:0.944862&quot;
       sodipodi:nodetypes=&quot;sccccssccsssccccccssscccccccccccccccssccccssccccccccccccccccccccscssssssssssssssscccas&quot; /&gt;
=======
       d=&quot;m 104.02702,48.538269 c 4.81276,0 8.71385,-3.6602 8.71385,-8.1758 0,-4.5156 -3.90109,-8.1758 -8.71385,-8.1758 -4.81278,0 -8.713865,3.6602 -8.713865,8.1758 0,4.5156 3.901085,8.1758 8.713865,8.1758&quot;
       id=&quot;path67&quot;
       style=&quot;fill:#782144;stroke-width:1.03238&quot; /&gt;
    <path
   d="m 189.85025,279.70707 c -21.19601,-2.4062 -33.14745,-11.871 -33.74739,-27.105 v -0.89453 c -3.49088,-1.8945 -6.16918,-5.2656 -7.44199,-9.3711 -1.27639,-4.1055 -1.04275,-8.6094 0.64167,-12.523 -2.80034,-1.4141 -5.17875,-3.7031 -6.84572,-6.5938 -1.66697,-2.8906 -2.55276,-6.2617 -2.55276,-9.7031 0,-2.3672 0.42544,-4.707 1.25191,-6.8867 h -27.29894 v 51.855 c 0,3.0938 -2.23888,5.6016 -5.00092,5.6016 -2.75846,0 -4.99742,-2.5078 -4.99742,-5.6016 v -51.855 h -5.000905 c -5.47515,-0.34375 -10.40964,-3.8164 -13.06382,-9.1953 -2.65393,-5.375 -2.65393,-11.906 0,-17.281 2.65392,-5.3789 7.58849,-8.8516 13.06382,-9.1953 h 5.000905 v -48.16 c 0,-3.0938 2.23887,-5.6016 4.99742,-5.6016 2.76204,0 5.00092,2.5078 5.00092,5.6016 v 48.16 h 91.99045 c 0.21621,0.0274 0.43591,0.0274 0.65213,0 -4.15342,-3.2383 -8.72187,-5.7461 -13.5486,-7.4492 -11.04796,-4.6484 -28.69791,-16.801 -24.39746,-34.441 l 0.34874,-0.95312 v 0.004 c 1.95988,-4.0898 5.34265,-7.0898 9.34992,-8.2891 5.78207,-1.3047 11.78003,0.3125 16.3974,4.4258 5.60415,4.2695 11.71039,7.6445 18.14811,10.023 3.35136,0.78516 24.99741,6.2148 34.99548,16.801 7.8082,8.0625 14.54581,17.344 19.99971,27.551 0.92767,-1.25 2.29467,-1.9844 3.7489,-2.0156 h 29.39874 -0.004 c 2.76204,0 5.00092,2.5078 5.00092,5.6016 0,3.0898 -2.23888,5.5977 -5.00092,5.5977 h -24.49833 l 0.004,73.25 h 24.49836 -0.004 c 2.76204,0 5.00092,2.5039 5.00092,5.5977 0,3.0938 -2.23888,5.6016 -5.00092,5.6016 h -29.7469 c -1.99829,-0.0352 -3.7873,-1.3984 -4.54757,-3.4727 -8.9937,7.2305 -19.72831,11.25 -30.7968,11.535 h -21.59687 v -11.199 h 21.59687 c 11.39346,-0.5625 22.25661,-5.5742 30.69592,-14.168 v -52.922 c -5.25892,-16.453 -14.02979,-31.215 -25.54467,-43.008 v -0.28125 c -6.65038,-7.4492 -23.99662,-12.77 -29.99868,-14.223 -0.13247,0.0273 -0.26852,0.0273 -0.40105,0 -7.4769,-2.7227 -14.58062,-6.6055 -21.09869,-11.535 -2.30164,-2.1445 -5.2624,-3.1914 -8.24762,-2.9102 -1.21364,0.42969 -2.26682,1.293 -2.99917,2.4609 -2.14817,11.648 18.29811,20.551 18.49719,20.609 18.39898,7.5586 21.89684,14.559 21.29689,19.266 -0.0628,2.2539 -0.92766,4.3906 -2.3993,5.9336 -2.68873,2.4062 -6.05758,3.6602 -9.4999,3.5273 H 99.058945 c -3.19789,0.32422 -5.64603,3.3242 -5.64603,6.918 0,3.5938 2.44814,6.5938 5.64603,6.9141 h 77.091985 c 2.75846,0 4.99742,2.5078 4.99742,5.6016 0,3.0938 -2.23887,5.6016 -4.99742,5.6016 h -20.34878 c -3.3967,0 -6.1482,3.082 -6.1482,6.8867 0,3.8047 2.7515,6.8867 6.1482,6.8867 h 20.34878 c 2.75846,0 4.99742,2.5078 4.99742,5.6016 0,3.0938 -2.23887,5.6016 -4.99742,5.6016 h -13.60038 c -2.75846,0 -4.99742,2.5039 -4.99742,5.5977 0,3.0938 2.23888,5.6016 4.99742,5.6016 h 19.99971 c 2.75846,0 4.99744,2.5078 4.99744,5.5977 0,3.0938 -2.23888,5.6016 -4.99744,5.6016 h -16.54739 c 1.60073,12.266 18.69896,15.176 28.99699,15.793 h -0.004 c 2.60508,0.23438 4.61032,2.6719 4.59977,5.5977 -1.47556,5.55173 -5.20558,3.99304 -9.74538,4.0296 z"
   id="path69"
   style="fill:#782144;stroke-width:0.944862"
   sodipodi:nodetypes="cccccssccsssccccccssscccccccccccccccssccccssccccccccccccccccccccscsssssssssssssssccccc" />

&gt;&gt;&gt;&gt;&gt;&gt;&gt; 4b840891c4e0095f9dd24b2ad9f8f2f41613a94f
    <path
   d="M 133.55573,119.21827 108.95919,91.831269 84.362635,119.38227 v 0.004 c -0.82301,1.4062 -2.16567,2.3281 -3.66177,2.5078 -1.49608,0.17578 -2.98165,-0.41016 -4.04886,-1.5977 -1.06711,-1.1836 -1.60073,-2.8477 -1.45073,-4.5234 0.14645,-1.6719 0.959,-3.1875 2.21102,-4.1172 L 105.51025,80.073769 c 1.93204,-2.0625 4.9695,-2.0625 6.89804,0 l 28.0453,31.414001 h 0.004 c 1.84133,2.1641 1.84133,5.5664 0,7.7305 -1.93203,2.0586 -4.96948,2.0586 -6.90151,0 z"
   id="path71"
   style="fill:#782144;stroke-width:0.944862" />
<path
   d="m 108.96008,286.87827 24.59655,-27.551 c 0.81256,-1.4336 2.16567,-2.3789 3.67569,-2.5664 1.50655,-0.1875 3.0096,0.40234 4.08369,1.6055 1.07407,1.2031 1.60072,2.8867 1.43333,4.5742 -0.16739,1.6914 -1.01132,3.2031 -2.2912,4.1172 l -28.0453,31.414 h -0.004 c -1.92856,2.0625 -4.966,2.0625 -6.89804,0 l -28.097965,-31.414 c -1.84133,-2.1641 -1.84133,-5.5664 0,-7.7305 1.93899,-2.0977 5.01136,-2.0977 6.95034,0 z"
   id="path73"
   style="fill:#782144;stroke-width:0.944862" />
</g>
</svg>
